PathFileType	3	(X/Y/Z)	walking_1__view1_aligned.trc
DataRate	CameraRate	NumFrames	NumMarkers	Units	OrigDataRate	OrigDataStartFrame	OrigNumFrames
100.0	100.0	7	19	mm	100.0	4579	6105
Frame#	Time	pelvis			neck			head			hip_left			hip_right			knee_left			knee_right			ankle_left			ankle_right			heel_left			heel_right			toe_left			toe_right			shoulder_left			shoulder_right			elbow_left			elbow_right			wrist_left			wrist_right			
		X1	Y1	Z1	X2	Y2	Z2	X3	Y3	Z3	X4	Y4	Z4	X5	Y5	Z5	X6	Y6	Z6	X7	Y7	Z7	X8	Y8	Z8	X9	Y9	Z9	X10	Y10	Z10	X11	Y11	Z11	X12	Y12	Z12	X13	Y13	Z13	X14	Y14	Z14	X15	Y15	Z15	X16	Y16	Z16	X17	Y17	Z17	X18	Y18	Z18	X19	Y19	Z19	
4579	45.78000	106.881520	941.374674	119.630929	40.841585	1495.366668	243.789500	14.103006	1570.693364	395.748353	185.986529	947.172102	125.566876	27.776458	935.577240	113.694992	159.762637	491.064878	98.418168	-29.449882	549.386003	351.714169	135.272652	103.788841	-42.594938	-43.043164	179.546115	293.291760	132.746213	60.964079	-83.696203	-40.433888	138.493064	260.846789	123.122550	29.007913	131.539846	-49.647999	112.648301	453.329650	231.152661	1465.466818	250.191378	-118.018168	1421.734329	156.365215	326.493165	1177.907443	259.727274	-134.668318	1126.864589	81.316719	329.061437	939.043260	394.714987	-185.134797	856.698099	77.465852
4580	45.79000	104.508922	940.854330	120.104013	38.157605	1494.995445	245.442401	10.745788	1570.051383	397.211027	183.704760	946.466849	125.865352	25.313065	935.241811	114.342651	158.385786	489.501513	95.215984	-31.238843	549.823742	355.271645	133.221797	104.732957	-50.505540	-45.753361	175.351056	306.441527	130.375979	62.657197	-92.009549	-43.502173	132.834218	274.834467	122.041557	27.641010	121.595461	-51.492534	112.546965	470.531397	228.355263	1465.303167	253.011071	-120.085542	1421.725525	156.828652	324.224332	1177.606117	264.322632	-136.902851	1127.059965	80.150304	327.209747	938.626133	400.061768	-189.117099	855.799931	72.831711
4581	45.80000	102.060189	940.419588	120.546883	35.631243	1494.586214	246.669606	7.916020	1569.568522	398.266216	181.351796	945.845741	126.193453	22.768563	934.993435	114.900289	157.389656	488.990913	96.471073	-32.956441	549.298608	355.820868	131.332528	107.956715	-55.656928	-47.864531	170.729513	313.432733	128.172675	67.050744	-97.668096	-45.948447	127.008435	282.278722	120.668377	27.431563	112.841174	-52.390536	110.597878	481.181162	225.710820	1465.280340	254.670346	-122.279828	1421.296199	157.782564	321.882854	1177.690548	266.141991	-139.306402	1126.689125	80.678798	324.764536	938.682723	401.822218	-192.512646	854.891552	71.708350
4582	45.81000	99.611457	939.984845	120.989752	33.104881	1494.176983	247.896812	5.086251	1569.085661	399.321405	178.998833	945.224632	126.521555	20.224061	934.745058	115.457926	156.393526	488.480314	97.726162	-34.674038	548.773473	356.370092	129.443258	111.180472	-60.808315	-49.975702	166.107969	320.423938	125.969372	71.444290	-103.326642	-48.394721	121.182653	289.722977	119.295197	27.222115	104.086886	-53.288539	108.648790	491.830927	223.066378	1465.257512	256.329621	-124.474114	1420.866873	158.736476	319.541377	1177.774979	267.961351	-141.709954	1126.318284	81.207292	322.319325	938.739313	403.582669	-195.908193	853.983172	70.584988
4583	45.82000	97.162724	939.550103	121.432622	30.578519	1493.767752	249.124017	2.256482	1568.602800	400.376594	176.645869	944.603524	126.849657	17.679560	934.496681	116.015564	155.397396	487.969714	98.981251	-36.391635	548.248339	356.919316	127.553989	114.404229	-65.959702	-52.086872	161.486426	327.415144	123.766068	75.837836	-108.985188	-50.840995	115.356870	297.167233	117.922017	27.012667	95.332599	-54.186542	106.699702	502.480692	220.421936	1465.234685	257.988896	-126.668400	1420.437547	159.690388	317.199899	1177.859411	269.780710	-144.113505	1125.947443	81.735786	319.874113	938.795903	405.343119	-199.303739	853.074792	69.461627
4584	45.83000	94.713991	939.115360	121.875491	28.052157	1493.358521	250.351223	-0.573287	1568.119939	401.431782	174.292905	943.982415	127.177759	15.135058	934.248305	116.573201	154.401266	487.459115	100.236340	-38.109233	547.723204	357.468539	125.664719	117.627987	-71.111090	-54.198043	156.864882	334.406349	121.562765	80.231382	-114.643734	-53.287269	109.531088	304.611488	116.548837	26.803219	86.578312	-55.084544	104.750614	513.130457	217.777493	1465.211858	259.648171	-128.862686	1420.008221	160.644300	314.858421	1177.943842	271.600070	-146.517057	1125.576602	82.264280	317.428902	938.852492	407.103569	-202.699286	852.166412	68.338266
4585	45.84000	92.265259	938.680617	122.318361	25.525795	1492.949290	251.578428	-3.403056	1567.637078	402.486971	171.939941	943.361307	127.505860	12.590556	933.999928	117.130839	153.405136	486.948515	101.491429	-39.826830	547.198070	358.017763	123.775450	120.851744	-76.262477	-56.309213	152.243339	341.397555	119.359461	84.624928	-120.302281	-55.733543	103.705305	312.055743	115.175657	26.593772	77.824024	-55.982547	102.801526	523.780221	215.133051	1465.189031	261.307446	-131.056972	1419.578896	161.598211	312.516944	1178.028273	273.419430	-148.920608	1125.205761	82.792774	314.983691	938.909082	408.864019	-206.094833	851.258032	67.214905
